<svg xmlns="http://www.w3.org/2000/svg" xmlns:xlink="http://www.w3.org/1999/xlink" width="1000" height="550" fill="#000" fill-opacity="1" stroke="#000" stroke-dasharray="none" stroke-dashoffset="0" stroke-linecap="square" stroke-linejoin="miter" stroke-miterlimit="10" stroke-opacity="1" stroke-width="1" color-interpolation="auto" color-rendering="auto" font-family="'Dialog'" font-size="12" font-style="normal" font-weight="normal" image-rendering="auto" shape-rendering="auto" text-rendering="auto" viewBox="960 130 1000 550"><g><defs id="defs1"><clipPath id="clipPath1" clipPathUnits="userSpaceOnUse"><path d="M0 0 L2147483647 0 L2147483647 2147483647 L0 2147483647 L0 0 Z"/></clipPath><clipPath id="clipPath2" clipPathUnits="userSpaceOnUse"><path d="M0 0 L0 30 L160 30 L160 0 Z"/></clipPath><clipPath id="clipPath3" clipPathUnits="userSpaceOnUse"><path d="M0 0 L0 30 L30 30 L30 0 Z"/></clipPath><clipPath id="clipPath4" clipPathUnits="userSpaceOnUse"><path d="M0 0 L0 30 L150 30 L150 0 Z"/></clipPath><clipPath id="clipPath5" clipPathUnits="userSpaceOnUse"><path d="M0 0 L0 30 L140 30 L140 0 Z"/></clipPath><clipPath id="clipPath6" clipPathUnits="userSpaceOnUse"><path d="M0 0 L0 30 L130 30 L130 0 Z"/></clipPath><clipPath id="clipPath7" clipPathUnits="userSpaceOnUse"><path d="M0 0 L0 70 L90 70 L90 0 Z"/></clipPath><clipPath id="clipPath8" clipPathUnits="userSpaceOnUse"><path d="M0 0 L0 70 L170 70 L170 0 Z"/></clipPath><clipPath id="clipPath9" clipPathUnits="userSpaceOnUse"><path d="M0 0 L0 60 L140 60 L140 0 Z"/></clipPath><clipPath id="clipPath10" clipPathUnits="userSpaceOnUse"><path d="M0 0 L0 70 L100 70 L100 0 Z"/></clipPath><clipPath id="clipPath11" clipPathUnits="userSpaceOnUse"><path d="M0 0 L0 60 L130 60 L130 0 Z"/></clipPath><clipPath id="clipPath12" clipPathUnits="userSpaceOnUse"><path d="M0 0 L0 70 L120 70 L120 0 Z"/></clipPath><clipPath id="clipPath13" clipPathUnits="userSpaceOnUse"><path d="M0 0 L0 70 L150 70 L150 0 Z"/></clipPath><clipPath id="clipPath14" clipPathUnits="userSpaceOnUse"><path d="M0 0 L0 70 L140 70 L140 0 Z"/></clipPath><clipPath id="clipPath15" clipPathUnits="userSpaceOnUse"><path d="M0 0 L0 60 L150 60 L150 0 Z"/></clipPath><clipPath id="clipPath16" clipPathUnits="userSpaceOnUse"><path d="M0 0 L0 60 L180 60 L180 0 Z"/></clipPath><clipPath id="clipPath17" clipPathUnits="userSpaceOnUse"><path d="M0 0 L0 60 L120 60 L120 0 Z"/></clipPath><clipPath id="clipPath18" clipPathUnits="userSpaceOnUse"><path d="M0 0 L0 200 L30 200 L30 0 Z"/></clipPath><clipPath id="clipPath19" clipPathUnits="userSpaceOnUse"><path d="M0 0 L0 30 L370 30 L370 0 Z"/></clipPath><clipPath id="clipPath20" clipPathUnits="userSpaceOnUse"><path d="M0 0 L0 110 L30 110 L30 0 Z"/></clipPath><clipPath id="clipPath21" clipPathUnits="userSpaceOnUse"><path d="M0 0 L0 140 L30 140 L30 0 Z"/></clipPath><clipPath id="clipPath22" clipPathUnits="userSpaceOnUse"><path d="M0 0 L0 510 L30 510 L30 0 Z"/></clipPath><clipPath id="clipPath23" clipPathUnits="userSpaceOnUse"><path d="M0 0 L0 120 L100 120 L100 0 Z"/></clipPath><clipPath id="clipPath24" clipPathUnits="userSpaceOnUse"><path d="M0 0 L0 80 L30 80 L30 0 Z"/></clipPath><clipPath id="clipPath25" clipPathUnits="userSpaceOnUse"><path d="M0 0 L0 130 L110 130 L110 0 Z"/></clipPath><clipPath id="clipPath26" clipPathUnits="userSpaceOnUse"><path d="M0 0 L0 30 L170 30 L170 0 Z"/></clipPath></defs><g font-family="sans-serif" font-size="16" font-weight="bold"><text x="5" y="20" stroke="none" clip-path="url(#clipPath2)" transform="translate(1010,600)" xml:space="preserve">(Sub-)Renderer</text></g><g fill="#FF0" fill-opacity=".49" stroke="#FF0" stroke-opacity=".49" transform="translate(980,600)"><rect width="28.5" height="28.5" x=".5" y=".5" stroke="none" clip-path="url(#clipPath3)"/></g><g transform="translate(980,600)"><rect width="28.5" height="28.5" x=".5" y=".5" fill="none" clip-path="url(#clipPath3)"/></g><g font-family="sans-serif" font-size="16" font-weight="bold"><text x="5" y="20" stroke="none" clip-path="url(#clipPath4)" transform="translate(1010,560)" xml:space="preserve">Render Object</text></g><g fill="#00F" fill-opacity=".49" stroke="#00F" stroke-opacity=".49" transform="translate(980,560)"><rect width="28.5" height="28.5" x=".5" y=".5" stroke="none" clip-path="url(#clipPath3)"/></g><g transform="translate(980,560)"><rect width="28.5" height="28.5" x=".5" y=".5" fill="none" clip-path="url(#clipPath3)"/></g><g font-family="sans-serif" font-size="16" font-weight="bold"><text x="5" y="20" stroke="none" clip-path="url(#clipPath5)" transform="translate(1010,520)" xml:space="preserve">Render Entity</text></g><g fill="orange" fill-opacity=".49" stroke="orange" stroke-opacity=".49" transform="translate(980,520)"><rect width="28.5" height="28.5" x=".5" y=".5" stroke="none" clip-path="url(#clipPath3)"/></g><g transform="translate(980,520)"><rect width="28.5" height="28.5" x=".5" y=".5" fill="none" clip-path="url(#clipPath3)"/></g><g font-family="sans-serif" font-size="16" font-weight="bold"><text x="5" y="20" stroke="none" clip-path="url(#clipPath6)" transform="translate(1010,480)" xml:space="preserve">Game Entity</text></g><g fill="#0F0" fill-opacity=".49" stroke="#0F0" stroke-opacity=".49" transform="translate(980,480)"><rect width="28.5" height="28.5" x=".5" y=".5" stroke="none" clip-path="url(#clipPath3)"/></g><g transform="translate(980,480)"><rect width="28.5" height="28.5" x=".5" y=".5" fill="none" clip-path="url(#clipPath3)"/></g><g font-family="sans-serif" font-size="14"><text x="5" y="18.109" stroke="none" clip-path="url(#clipPath7)" transform="translate(1270,390)" xml:space="preserve">request</text><text x="5" y="34.219" stroke="none" clip-path="url(#clipPath7)" transform="translate(1270,390)" xml:space="preserve">render</text><text x="5" y="50.328" stroke="none" clip-path="url(#clipPath7)" transform="translate(1270,390)" xml:space="preserve">entity</text></g><g font-family="sans-serif" font-size="14"><text x="5" y="18.109" stroke="none" clip-path="url(#clipPath8)" transform="translate(1420,530)" xml:space="preserve">register render entity</text></g><g fill="#FFF" fill-opacity="0" stroke="#FFF" stroke-opacity="0" transform="translate(1210,500)"><rect width="138.5" height="58.5" x=".5" y=".5" stroke="none" clip-path="url(#clipPath9)"/></g><g transform="translate(1210,500)"><rect width="138.5" height="58.5" x=".5" y=".5" fill="none" clip-path="url(#clipPath9)"/><text x="11" y="34.219" stroke="none" clip-path="url(#clipPath9)" font-family="sans-serif" font-size="14" font-weight="bold" xml:space="preserve">RenderFactory</text></g><g font-family="sans-serif" font-size="14"><text x="5" y="18.109" stroke="none" clip-path="url(#clipPath10)" transform="translate(1480,340)" xml:space="preserve">2. store</text><text x="5" y="34.219" stroke="none" clip-path="url(#clipPath10)" transform="translate(1480,340)" xml:space="preserve">vertex data</text></g><g fill="#00F" fill-opacity=".49" stroke="#00F" stroke-opacity=".49" transform="translate(1460,410)"><rect width="128.5" height="58.5" x=".5" y=".5" stroke="none" clip-path="url(#clipPath11)"/></g><g transform="translate(1460,410)"><rect width="128.5" height="58.5" x=".5" y=".5" fill="none" clip-path="url(#clipPath11)"/><text x="10" y="34.219" stroke="none" clip-path="url(#clipPath11)" font-family="sans-serif" font-size="14" font-weight="bold" xml:space="preserve">TerrainVertex</text></g><g font-family="sans-serif" font-size="14"><text x="5" y="18.109" stroke="none" clip-path="url(#clipPath12)" transform="translate(1820,320)" xml:space="preserve">6. update</text><text x="5" y="34.219" stroke="none" clip-path="url(#clipPath12)" transform="translate(1820,320)" xml:space="preserve">mesh</text></g><g fill="#00F" fill-opacity=".49" stroke="#00F" stroke-opacity=".49" transform="translate(1740,220)"><rect width="128.5" height="58.5" x=".5" y=".5" stroke="none" clip-path="url(#clipPath11)"/></g><g transform="translate(1740,220)"><rect width="128.5" height="58.5" x=".5" y=".5" fill="none" clip-path="url(#clipPath11)"/><text x="15" y="34.219" stroke="none" clip-path="url(#clipPath11)" font-family="sans-serif" font-size="14" font-weight="bold" xml:space="preserve">TerrainMesh</text></g><g font-family="sans-serif" font-size="19" font-weight="bold"><text x="5" y="22.797" stroke="none" clip-path="url(#clipPath13)" transform="translate(1200,170)" xml:space="preserve">Gamestate</text></g><g font-family="sans-serif" font-size="19" font-weight="bold"><text x="5" y="22.797" stroke="none" clip-path="url(#clipPath13)" transform="translate(1580,170)" xml:space="preserve">Renderer</text></g><g font-family="sans-serif" font-size="14"><text x="5" y="18.109" stroke="none" clip-path="url(#clipPath13)" transform="translate(1540,380)" xml:space="preserve">5. send updates</text></g><g font-family="sans-serif" font-size="14"><text x="5" y="18.109" stroke="none" clip-path="url(#clipPath13)" transform="translate(1480,240)" xml:space="preserve">1. convert data</text></g><g font-family="sans-serif" font-size="14"><text x="5" y="18.109" stroke="none" clip-path="url(#clipPath13)" transform="translate(1680,320)" xml:space="preserve">4. poll updates</text></g><g font-family="sans-serif" font-size="14"><text x="5" y="18.109" stroke="none" clip-path="url(#clipPath13)" transform="translate(1770,450)" xml:space="preserve">3. poll updates</text><text x="5" y="34.219" stroke="none" clip-path="url(#clipPath13)" transform="translate(1770,450)" xml:space="preserve">(every frame)</text></g><g font-family="sans-serif" font-size="14"><text x="5" y="18.109" stroke="none" clip-path="url(#clipPath14)" transform="translate(1330,300)" xml:space="preserve">0. send updates</text></g><g font-family="sans-serif" font-size="14"><text x="5" y="18.109" stroke="none" clip-path="url(#clipPath12)" transform="translate(1720,560)" xml:space="preserve">7. draw</text><text x="5" y="34.219" stroke="none" clip-path="url(#clipPath12)" transform="translate(1720,560)" xml:space="preserve">(every frame)</text></g><g fill="#FF0" fill-opacity=".49" stroke="#FF0" stroke-opacity=".49" transform="translate(1690,500)"><rect width="148.5" height="58.5" x=".5" y=".5" stroke="none" clip-path="url(#clipPath15)"/></g><g transform="translate(1690,500)"><rect width="148.5" height="58.5" x=".5" y=".5" fill="none" clip-path="url(#clipPath15)"/><text x="9" y="34.219" stroke="none" clip-path="url(#clipPath15)" font-family="sans-serif" font-size="14" font-weight="bold" xml:space="preserve">TerrainRenderer</text></g><g fill="#00F" fill-opacity=".49" stroke="#00F" stroke-opacity=".49" transform="translate(1690,390)"><rect width="128.5" height="58.5" x=".5" y=".5" stroke="none" clip-path="url(#clipPath11)"/></g><g transform="translate(1690,390)"><rect width="128.5" height="58.5" x=".5" y=".5" fill="none" clip-path="url(#clipPath11)"/><text x="12" y="34.219" stroke="none" clip-path="url(#clipPath11)" font-family="sans-serif" font-size="14" font-weight="bold" xml:space="preserve">TerrainModel</text></g><g fill="orange" fill-opacity=".49" stroke="orange" stroke-opacity=".49" transform="translate(1460,270)"><rect width="178.5" height="58.5" x=".5" y=".5" stroke="none" clip-path="url(#clipPath16)"/></g><g transform="translate(1460,270)"><rect width="178.5" height="58.5" x=".5" y=".5" fill="none" clip-path="url(#clipPath16)"/><text x="9" y="34.219" stroke="none" clip-path="url(#clipPath16)" font-family="sans-serif" font-size="14" font-weight="bold" xml:space="preserve">TerrainRenderEntity</text></g><g fill="#0F0" fill-opacity=".49" stroke="#0F0" stroke-opacity=".49" transform="translate(1200,270)"><rect width="118.5" height="58.5" x=".5" y=".5" stroke="none" clip-path="url(#clipPath17)"/></g><g transform="translate(1200,270)"><rect width="118.5" height="58.5" x=".5" y=".5" fill="none" clip-path="url(#clipPath17)"/><text x="31" y="34.219" stroke="none" clip-path="url(#clipPath17)" font-family="sans-serif" font-size="14" font-weight="bold" xml:space="preserve">Terrain</text></g><g><path fill="none" d="M10.5 180.5 L10.5 10.5" clip-path="url(#clipPath18)" transform="translate(1260,320)"/><path fill="none" d="M17 169.2417 L10.5 180.5 L4 169.2417" clip-path="url(#clipPath18)" transform="translate(1260,320)"/><path fill="none" d="M17 21.7583 L10.5 10.5 L4 21.7583" clip-path="url(#clipPath18)" transform="translate(1260,320)"/></g><g><path fill="none" d="M350.5 10.5 L10.5 10.5" clip-path="url(#clipPath19)" transform="translate(1340,520)"/><path fill="none" d="M339.2417 4 L350.5 10.5 L339.2417 17" clip-path="url(#clipPath19)" transform="translate(1340,520)"/></g><g><path fill="none" d="M10.5 90.5 L10.5 10.5" clip-path="url(#clipPath20)" transform="translate(1470,320)"/><path fill="none" d="M17 79.2417 L10.5 90.5 L4 79.2417" clip-path="url(#clipPath20)" transform="translate(1470,320)"/></g><g><path fill="none" d="M10.5 10.5 L10.5 120.5" clip-path="url(#clipPath21)" transform="translate(1800,270)"/><path fill="none" d="M4 21.7583 L10.5 10.5 L17 21.7583" clip-path="url(#clipPath21)" transform="translate(1800,270)"/></g><g stroke-dasharray="8 5" stroke-linecap="butt" stroke-miterlimit="5"><path fill="none" d="M10.5 490.5 L10.5 10.5" clip-path="url(#clipPath22)" transform="translate(1380,150)"/></g><g><path fill="none" d="M80.5 100.5 L10.5 10.5" clip-path="url(#clipPath23)" transform="translate(1610,320)"/><path fill="none" d="M78.7188 87.6226 L80.5 100.5 L68.4573 95.6038" clip-path="url(#clipPath23)" transform="translate(1610,320)"/></g><g><path fill="none" d="M10.5 10.5 L10.5 60.5" clip-path="url(#clipPath24)" transform="translate(1740,440)"/><path fill="none" d="M4 21.7583 L10.5 10.5 L17 21.7583" clip-path="url(#clipPath24)" transform="translate(1740,440)"/></g><g><path fill="none" d="M10.5 10.5 L90.5 110.5" clip-path="url(#clipPath25)" transform="translate(1630,280)"/><path fill="none" d="M12.4574 23.3518 L10.5 10.5 L22.6087 15.2308" clip-path="url(#clipPath25)" transform="translate(1630,280)"/></g><g><path fill="none" d="M150.5 10.5 L10.5 10.5" clip-path="url(#clipPath26)" transform="translate(1310,290)"/><path fill="none" d="M139.2417 4 L150.5 10.5 L139.2417 17" clip-path="url(#clipPath26)" transform="translate(1310,290)"/></g></g></svg>