<svg xmlns="http://www.w3.org/2000/svg" xmlns:xlink="http://www.w3.org/1999/xlink" width="900" height="550" fill="#000" fill-opacity="1" stroke="#000" stroke-dasharray="none" stroke-dashoffset="0" stroke-linecap="square" stroke-linejoin="miter" stroke-miterlimit="10" stroke-opacity="1" stroke-width="1" color-interpolation="auto" color-rendering="auto" font-family="'Dialog'" font-size="12" font-style="normal" font-weight="normal" image-rendering="auto" shape-rendering="auto" text-rendering="auto" viewBox="240 160 900 550"><g><defs id="defs1"><clipPath id="clipPath1" clipPathUnits="userSpaceOnUse"><path d="M0 0 L2147483647 0 L2147483647 2147483647 L0 2147483647 L0 0 Z"/></clipPath><clipPath id="clipPath2" clipPathUnits="userSpaceOnUse"><path d="M0 0 L0 30 L160 30 L160 0 Z"/></clipPath><clipPath id="clipPath3" clipPathUnits="userSpaceOnUse"><path d="M0 0 L0 30 L30 30 L30 0 Z"/></clipPath><clipPath id="clipPath4" clipPathUnits="userSpaceOnUse"><path d="M0 0 L0 30 L150 30 L150 0 Z"/></clipPath><clipPath id="clipPath5" clipPathUnits="userSpaceOnUse"><path d="M0 0 L0 30 L140 30 L140 0 Z"/></clipPath><clipPath id="clipPath6" clipPathUnits="userSpaceOnUse"><path d="M0 0 L0 30 L130 30 L130 0 Z"/></clipPath><clipPath id="clipPath7" clipPathUnits="userSpaceOnUse"><path d="M0 0 L0 70 L90 70 L90 0 Z"/></clipPath><clipPath id="clipPath8" clipPathUnits="userSpaceOnUse"><path d="M0 0 L0 70 L170 70 L170 0 Z"/></clipPath><clipPath id="clipPath9" clipPathUnits="userSpaceOnUse"><path d="M0 0 L0 60 L140 60 L140 0 Z"/></clipPath><clipPath id="clipPath10" clipPathUnits="userSpaceOnUse"><path d="M0 0 L0 70 L150 70 L150 0 Z"/></clipPath><clipPath id="clipPath11" clipPathUnits="userSpaceOnUse"><path d="M0 0 L0 70 L140 70 L140 0 Z"/></clipPath><clipPath id="clipPath12" clipPathUnits="userSpaceOnUse"><path d="M0 0 L0 70 L120 70 L120 0 Z"/></clipPath><clipPath id="clipPath13" clipPathUnits="userSpaceOnUse"><path d="M0 0 L0 60 L130 60 L130 0 Z"/></clipPath><clipPath id="clipPath14" clipPathUnits="userSpaceOnUse"><path d="M0 0 L0 60 L180 60 L180 0 Z"/></clipPath><clipPath id="clipPath15" clipPathUnits="userSpaceOnUse"><path d="M0 0 L0 60 L110 60 L110 0 Z"/></clipPath><clipPath id="clipPath16" clipPathUnits="userSpaceOnUse"><path d="M0 0 L0 200 L30 200 L30 0 Z"/></clipPath><clipPath id="clipPath17" clipPathUnits="userSpaceOnUse"><path d="M0 0 L0 30 L380 30 L380 0 Z"/></clipPath><clipPath id="clipPath18" clipPathUnits="userSpaceOnUse"><path d="M0 0 L0 510 L30 510 L30 0 Z"/></clipPath><clipPath id="clipPath19" clipPathUnits="userSpaceOnUse"><path d="M0 0 L0 120 L100 120 L100 0 Z"/></clipPath><clipPath id="clipPath20" clipPathUnits="userSpaceOnUse"><path d="M0 0 L0 80 L30 80 L30 0 Z"/></clipPath><clipPath id="clipPath21" clipPathUnits="userSpaceOnUse"><path d="M0 0 L0 130 L110 130 L110 0 Z"/></clipPath><clipPath id="clipPath22" clipPathUnits="userSpaceOnUse"><path d="M0 0 L0 30 L170 30 L170 0 Z"/></clipPath></defs><g font-family="sans-serif" font-size="16" font-weight="bold"><text x="5" y="20" stroke="none" clip-path="url(#clipPath2)" transform="translate(290,630)" xml:space="preserve">(Sub-)Renderer</text></g><g fill="#FF0" fill-opacity=".49" stroke="#FF0" stroke-opacity=".49" transform="translate(260,630)"><rect width="28.5" height="28.5" x=".5" y=".5" stroke="none" clip-path="url(#clipPath3)"/></g><g transform="translate(260,630)"><rect width="28.5" height="28.5" x=".5" y=".5" fill="none" clip-path="url(#clipPath3)"/></g><g font-family="sans-serif" font-size="16" font-weight="bold"><text x="5" y="20" stroke="none" clip-path="url(#clipPath4)" transform="translate(290,590)" xml:space="preserve">Render Object</text></g><g fill="#00F" fill-opacity=".49" stroke="#00F" stroke-opacity=".49" transform="translate(260,590)"><rect width="28.5" height="28.5" x=".5" y=".5" stroke="none" clip-path="url(#clipPath3)"/></g><g transform="translate(260,590)"><rect width="28.5" height="28.5" x=".5" y=".5" fill="none" clip-path="url(#clipPath3)"/></g><g font-family="sans-serif" font-size="16" font-weight="bold"><text x="5" y="20" stroke="none" clip-path="url(#clipPath5)" transform="translate(290,550)" xml:space="preserve">Render Entity</text></g><g fill="orange" fill-opacity=".49" stroke="orange" stroke-opacity=".49" transform="translate(260,550)"><rect width="28.5" height="28.5" x=".5" y=".5" stroke="none" clip-path="url(#clipPath3)"/></g><g transform="translate(260,550)"><rect width="28.5" height="28.5" x=".5" y=".5" fill="none" clip-path="url(#clipPath3)"/></g><g font-family="sans-serif" font-size="16" font-weight="bold"><text x="5" y="20" stroke="none" clip-path="url(#clipPath6)" transform="translate(290,510)" xml:space="preserve">Game Entity</text></g><g fill="#0F0" fill-opacity=".49" stroke="#0F0" stroke-opacity=".49" transform="translate(260,510)"><rect width="28.5" height="28.5" x=".5" y=".5" stroke="none" clip-path="url(#clipPath3)"/></g><g transform="translate(260,510)"><rect width="28.5" height="28.5" x=".5" y=".5" fill="none" clip-path="url(#clipPath3)"/></g><g font-family="sans-serif" font-size="14"><text x="5" y="18.109" stroke="none" clip-path="url(#clipPath7)" transform="translate(550,420)" xml:space="preserve">request</text><text x="5" y="34.219" stroke="none" clip-path="url(#clipPath7)" transform="translate(550,420)" xml:space="preserve">render</text><text x="5" y="50.328" stroke="none" clip-path="url(#clipPath7)" transform="translate(550,420)" xml:space="preserve">entity</text></g><g font-family="sans-serif" font-size="14"><text x="5" y="18.109" stroke="none" clip-path="url(#clipPath8)" transform="translate(700,560)" xml:space="preserve">register render entity</text></g><g fill="#FFF" fill-opacity="0" stroke="#FFF" stroke-opacity="0" transform="translate(490,530)"><rect width="138.5" height="58.5" x=".5" y=".5" stroke="none" clip-path="url(#clipPath9)"/></g><g transform="translate(490,530)"><rect width="138.5" height="58.5" x=".5" y=".5" fill="none" clip-path="url(#clipPath9)"/><text x="11" y="34.219" stroke="none" clip-path="url(#clipPath9)" font-family="sans-serif" font-size="14" font-weight="bold" xml:space="preserve">RenderFactory</text></g><g font-family="sans-serif" font-size="19" font-weight="bold"><text x="5" y="22.797" stroke="none" clip-path="url(#clipPath10)" transform="translate(480,200)" xml:space="preserve">Gamestate</text></g><g font-family="sans-serif" font-size="19" font-weight="bold"><text x="5" y="22.797" stroke="none" clip-path="url(#clipPath10)" transform="translate(860,200)" xml:space="preserve">Renderer</text></g><g font-family="sans-serif" font-size="14"><text x="5" y="18.109" stroke="none" clip-path="url(#clipPath10)" transform="translate(820,400)" xml:space="preserve">4. send updates</text></g><g font-family="sans-serif" font-size="14"><text x="5" y="18.109" stroke="none" clip-path="url(#clipPath10)" transform="translate(760,270)" xml:space="preserve">1. convert data</text></g><g font-family="sans-serif" font-size="14"><text x="5" y="18.109" stroke="none" clip-path="url(#clipPath10)" transform="translate(970,350)" xml:space="preserve">3. poll updates</text></g><g font-family="sans-serif" font-size="14"><text x="5" y="18.109" stroke="none" clip-path="url(#clipPath11)" transform="translate(610,330)" xml:space="preserve">0. send updates</text></g><g font-family="sans-serif" font-size="14"><text x="5" y="18.109" stroke="none" clip-path="url(#clipPath12)" transform="translate(1000,590)" xml:space="preserve">5. draw</text><text x="5" y="34.219" stroke="none" clip-path="url(#clipPath12)" transform="translate(1000,590)" xml:space="preserve">(every frame)</text></g><g fill="#FF0" fill-opacity=".49" stroke="#FF0" stroke-opacity=".49" transform="translate(970,530)"><rect width="128.5" height="58.5" x=".5" y=".5" stroke="none" clip-path="url(#clipPath13)"/></g><g transform="translate(970,530)"><rect width="128.5" height="58.5" x=".5" y=".5" fill="none" clip-path="url(#clipPath13)"/><text x="5" y="34.219" stroke="none" clip-path="url(#clipPath13)" font-family="sans-serif" font-size="14" font-weight="bold" xml:space="preserve">WorldRenderer</text></g><g fill="#00F" fill-opacity=".49" stroke="#00F" stroke-opacity=".49" transform="translate(970,420)"><rect width="128.5" height="58.5" x=".5" y=".5" stroke="none" clip-path="url(#clipPath13)"/></g><g transform="translate(970,420)"><rect width="128.5" height="58.5" x=".5" y=".5" fill="none" clip-path="url(#clipPath13)"/><text x="16" y="34.219" stroke="none" clip-path="url(#clipPath13)" font-family="sans-serif" font-size="14" font-weight="bold" xml:space="preserve">WorldObject</text></g><g fill="orange" fill-opacity=".49" stroke="orange" stroke-opacity=".49" transform="translate(740,300)"><rect width="178.5" height="58.5" x=".5" y=".5" stroke="none" clip-path="url(#clipPath14)"/></g><g transform="translate(740,300)"><rect width="178.5" height="58.5" x=".5" y=".5" fill="none" clip-path="url(#clipPath14)"/><text x="14" y="34.219" stroke="none" clip-path="url(#clipPath14)" font-family="sans-serif" font-size="14" font-weight="bold" xml:space="preserve">WorldRenderEntity</text></g><g fill="#0F0" fill-opacity=".49" stroke="#0F0" stroke-opacity=".49" transform="translate(490,300)"><rect width="108.5" height="58.5" x=".5" y=".5" stroke="none" clip-path="url(#clipPath15)"/></g><g transform="translate(490,300)"><rect width="108.5" height="58.5" x=".5" y=".5" fill="none" clip-path="url(#clipPath15)"/><text x="38" y="34.219" stroke="none" clip-path="url(#clipPath15)" font-family="sans-serif" font-size="14" font-weight="bold" xml:space="preserve">Unit</text></g><g><path fill="none" d="M10.5 180.5 L10.5 10.5" clip-path="url(#clipPath16)" transform="translate(540,350)"/><path fill="none" d="M17 169.2417 L10.5 180.5 L4 169.2417" clip-path="url(#clipPath16)" transform="translate(540,350)"/><path fill="none" d="M17 21.7583 L10.5 10.5 L4 21.7583" clip-path="url(#clipPath16)" transform="translate(540,350)"/></g><g><path fill="none" d="M360.5 10.5 L10.5 10.5" clip-path="url(#clipPath17)" transform="translate(610,550)"/><path fill="none" d="M349.2417 4 L360.5 10.5 L349.2417 17" clip-path="url(#clipPath17)" transform="translate(610,550)"/></g><g stroke-dasharray="8 5" stroke-linecap="butt" stroke-miterlimit="5"><path fill="none" d="M10.5 490.5 L10.5 10.5" clip-path="url(#clipPath18)" transform="translate(660,180)"/></g><g><path fill="none" d="M80.5 100.5 L10.5 10.5" clip-path="url(#clipPath19)" transform="translate(890,350)"/><path fill="none" d="M78.7188 87.6226 L80.5 100.5 L68.4573 95.6038" clip-path="url(#clipPath19)" transform="translate(890,350)"/></g><g><path fill="none" d="M10.5 10.5 L10.5 60.5" clip-path="url(#clipPath20)" transform="translate(1020,470)"/><path fill="none" d="M4 21.7583 L10.5 10.5 L17 21.7583" clip-path="url(#clipPath20)" transform="translate(1020,470)"/></g><g><path fill="none" d="M10.5 10.5 L90.5 110.5" clip-path="url(#clipPath21)" transform="translate(910,310)"/><path fill="none" d="M12.4574 23.3518 L10.5 10.5 L22.6087 15.2308" clip-path="url(#clipPath21)" transform="translate(910,310)"/></g><g><path fill="none" d="M150.5 10.5 L10.5 10.5" clip-path="url(#clipPath22)" transform="translate(590,320)"/><path fill="none" d="M139.2417 4 L150.5 10.5 L139.2417 17" clip-path="url(#clipPath22)" transform="translate(590,320)"/></g></g></svg>